Coordinates
version=1
nRows=16
nColumns=40
inDegrees=yes

Units are S.I. units (second, meters, Newtons, ...)
Angles are in degrees.

endheader
time	pelvis_tilt	pelvis_list	pelvis_rotation	pelvis_tx	pelvis_ty	pelvis_tz	hip_flexion_r	hip_adduction_r	hip_rotation_r	knee_angle_r	knee_angle_r_beta	ankle_angle_r	subtalar_angle_r	mtp_angle_r	hip_flexion_l	hip_adduction_l	hip_rotation_l	knee_angle_l	knee_angle_l_beta	ankle_angle_l	subtalar_angle_l	mtp_angle_l	lumbar_extension	lumbar_bending	lumbar_rotation	arm_flex_r	arm_add_r	arm_rot_r	elbow_flex_r	pro_sup_r	wrist_flex_r	wrist_dev_r	arm_flex_l	arm_add_l	arm_rot_l	elbow_flex_l	pro_sup_l	wrist_flex_l	wrist_dev_l
      2.85000000	      3.51409162	     -2.19516927	      1.34432817	      0.91843951	      0.89406491	      1.41208660	     21.19742219	     -0.37617215	    -23.62032921	    -16.15250048	     -0.28191432	     -3.96361562	      5.87817994	      0.43176065	    -11.95704214	     -0.29737015	     10.62748154	    -14.56203598	     -0.25415547	     12.49708310	     -8.90154319	     -6.69163400	    -10.21440105	      4.32774195	     -3.13506723	      3.96463464	     -7.56471087	     11.23917518	     13.91437998	     89.95437384	      0.00000000	      0.00000000	     17.43131555	     12.29555301	    -15.57822179	     33.23665297	     89.95437384	      0.00000000	      0.00000000
      2.86000000	      3.31800834	     -2.08676977	      1.52885775	      0.92617231	      0.89309034	      1.41242038	     21.42347972	     -0.42026344	    -23.14416394	    -16.54768944	     -0.28881166	     -4.01574371	      5.75350809	      0.40510765	    -12.00172503	     -0.25444739	     10.42111230	    -15.08725066	     -0.26332220	     12.21117650	     -8.62295227	     -6.56819660	    -10.03843253	      4.18576263	     -3.10965144	      3.55225969	     -7.55296568	     11.21688170	     14.17793198	     89.95437384	      0.00000000	      0.00000000	     17.24015928	     12.20311978	    -15.46863069	     33.48888585	     89.95437384	      0.00000000	      0.00000000
      2.87000000	      3.37054232	     -2.23638839	      1.71656464	      0.93455884	      0.89255557	      1.41280170	     21.20234796	     -0.10814716	    -22.42238100	    -16.99760338	     -0.29666414	     -4.12534748	      6.00303323	      0.26255700	    -12.52546966	      0.03690968	     10.09420819	    -15.32192209	     -0.26741799	     12.45082452	     -8.80176546	     -6.62478962	     -9.98523199	      4.37171908	     -3.20144927	      3.54307476	     -7.43793785	     11.40060716	     13.60395809	     89.95437384	      0.00000000	      0.00000000	     16.98450374	     12.01056470	    -15.29589218	     33.32506179	     89.95437384	      0.00000000	      0.00000000
      2.88000000	      3.47116838	     -2.27311595	      1.88650643	      0.94306034	      0.89206944	      1.41324883	     20.86019165	      0.07487572	    -21.78995121	    -17.54825435	     -0.30627482	     -4.25638877	      5.89745799	      0.12761466	    -13.01932138	      0.23557000	      9.92579136	    -15.71130509	     -0.27421400	     12.35551414	     -8.87825421	     -6.62866539	    -10.01726289	      4.41199467	     -3.24434150	      3.39655903	     -7.38544791	     11.59535516	     13.36236469	     89.95437384	      0.00000000	      0.00000000	     16.61914226	     11.84384913	    -14.94740960	     33.40685823	     89.95437384	      0.00000000	      0.00000000
      2.89000000	      3.46373226	     -2.26564779	      2.10918282	      0.95166320	      0.89146829	      1.41365030	     20.62356342	      0.19642182	    -21.16958795	    -18.19513182	     -0.31756496	     -4.79746989	      5.62811486	      0.11733539	    -13.39774956	      0.40352961	      9.71340871	    -16.08813580	     -0.28079094	     12.16009723	     -8.87629402	     -6.59035498	     -9.91093954	      4.39343471	     -3.37950916	      3.18581922	     -7.33834825	     11.75322880	     13.26238321	     89.95437384	      0.00000000	      0.00000000	     16.21107515	     11.70067598	    -14.70815638	     33.37288937	     89.95437384	      0.00000000	      0.00000000
      2.90000000	      3.26593325	     -2.15904111	      2.24853739	      0.96013007	      0.89073340	      1.41422682	     20.66007886	      0.19554306	    -20.72001192	    -18.65876640	     -0.32565691	     -4.98618972	      5.44144349	      0.12311511	    -13.45025148	      0.44460549	      9.46414891	    -16.66586844	     -0.29087428	     11.82714127	     -8.60418882	     -6.46652667	     -9.64707675	      4.23568359	     -3.31604968	      2.76983265	     -7.34950526	     11.73950135	     13.51475116	     89.95437384	      0.00000000	      0.00000000	     15.74698590	     11.58997348	    -14.61460063	     33.48330655	     89.95437384	      0.00000000	      0.00000000
      2.91000000	      3.83005602	     -3.04703163	      2.58461604	      0.96897685	      0.89173179	      1.41502718	     19.42500155	      1.49438454	    -20.32544030	    -17.97744460	     -0.31376560	     -6.68689023	      3.33876083	     -0.08087823	    -14.37861846	      1.77661939	      9.77655825	    -17.09714891	     -0.29840154	     11.26851797	     -9.69053594	     -6.83592622	    -10.15550600	      5.25882292	     -3.56596723	      2.96967771	     -7.43499261	     12.84958461	     12.99010733	     89.95437384	      0.00000000	      0.00000000	     15.26802691	     11.05534710	    -13.20886455	     33.03630631	     89.95437384	      0.00000000	      0.00000000
      2.92000000	      3.62747452	     -2.96297837	      2.58233167	      0.97752800	      0.89154398	      1.41573782	     19.46497245	      1.44088620	    -20.02701237	    -18.48203998	     -0.32257245	     -6.66944693	      3.09954247	     -0.08235311	    -14.38418117	      1.77912295	      9.50594493	    -17.72040972	     -0.30927949	     10.90418508	     -9.36130200	     -6.70108682	     -9.90299762	      5.11783777	     -3.46378123	      2.65363212	     -7.47204600	     12.82751290	     13.24972606	     89.95437384	      0.00000000	      0.00000000	     14.69580044	     10.94852797	    -13.17177275	     33.00889098	     89.95437384	      0.00000000	      0.00000000
      2.93000000	      3.67893798	     -3.31912007	      2.83069840	      0.98619540	      0.89200005	      1.41638164	     19.30094708	      1.81003299	    -20.26610958	    -19.30551324	     -0.33694477	     -6.29755953	      1.70415085	     -0.14185166	    -14.55650301	      2.39589642	      9.31769376	    -18.50151265	     -0.32291231	     10.25500405	     -9.12110616	     -6.62260680	     -9.82586646	      5.52683195	     -3.52989770	      2.82497367	     -7.40110775	     13.18434627	     12.45812147	     89.95437384	      0.00000000	      0.00000000	     14.46642337	     10.56722264	    -13.06442274	     31.97816243	     89.95437384	      0.00000000	      0.00000000
      2.94000000	      3.44727412	     -3.22446760	      2.84432327	      0.99482443	      0.89231501	      1.41691973	     19.27141910	      1.83417727	    -19.85692455	    -19.78696900	     -0.34534776	     -6.26820418	      1.55954015	     -0.14813491	    -14.49277637	      2.36840713	      9.01547998	    -19.15113742	     -0.33425040	      9.85883719	     -8.79056338	     -6.48047378	     -9.54475539	      5.39174536	     -3.48116620	      2.54706732	     -7.49086970	     13.15095968	     12.80225234	     89.95437384	      0.00000000	      0.00000000	     13.77345665	     10.46303996	    -13.01395323	     31.91588053	     89.95437384	      0.00000000	      0.00000000
      2.95000000	      3.28350221	     -4.20803782	      3.00045499	      1.00332788	      0.89302572	      1.41847577	     18.80317582	      3.70058652	    -17.68412511	    -19.23538218	     -0.33572075	     -6.18101669	     -3.08664733	     -0.83602140	    -13.89415248	      4.02990146	     10.14795177	    -20.87921757	     -0.36441109	      8.37609985	    -10.30211149	     -7.23640882	     -9.23391657	      6.41377172	     -3.51526658	      2.73123341	     -7.64375827	     14.93694854	     12.27226214	     89.95437384	      0.00000000	      0.00000000	     13.38626178	      9.91234306	    -12.13403972	     30.72827761	     89.95437384	      0.00000000	      0.00000000
      2.96000000	      3.21837721	     -4.33297474	      3.04565037	      1.01220477	      0.89398275	      1.41914970	     18.52612489	      3.92298849	    -17.50191180	    -19.74474692	     -0.34461084	     -5.56169635	     -3.20133596	     -0.92205085	    -13.83304503	      4.29141343	      9.80156340	    -21.81863864	     -0.38080708	      7.46884375	     -9.71749589	     -7.03102665	     -9.04275734	      6.53003274	     -3.44007957	      2.75777797	     -7.65596525	     15.04068015	     11.96945079	     89.95437384	      0.00000000	      0.00000000	     12.86358793	      9.62983642	    -12.09888747	     29.98041199	     89.95437384	      0.00000000	      0.00000000
      2.97000000	      3.18157521	     -4.44425466	      3.17421194	      1.02122196	      0.89510326	      1.41977169	     18.04725624	      4.11780964	    -17.40827973	    -20.05316850	     -0.34999382	     -4.66402741	     -3.41514825	     -1.00525392	    -13.61513094	      4.62793394	      9.63441690	    -23.04910061	     -0.40228270	      6.32139118	     -9.09536878	     -6.80298860	     -8.83928048	      6.64604008	     -3.49041147	      2.77943122	     -7.67083802	     15.20311876	     11.71762326	     89.95437384	      0.00000000	      0.00000000	     12.34398360	      9.34632985	    -12.02042198	     29.04309624	     89.95437384	      0.00000000	      0.00000000
      2.98000000	      3.09227381	     -4.58367320	      3.27021539	      1.03025123	      0.89620338	      1.42066665	     17.53781301	      4.36602199	    -17.26771861	    -20.20504399	     -0.35264454	     -3.83111655	     -3.44169482	     -1.07440688	    -13.21204334	      5.02862397	      9.50247939	    -24.46864324	     -0.42705839	      4.94619470	     -8.55008520	     -6.55938232	     -8.60087793	      6.76976648	     -3.51309106	      2.76934961	     -7.70382670	     15.35246042	     11.62101571	     89.95437384	      0.00000000	      0.00000000	     11.74722927	      9.10831576	    -11.92011756	     28.20319600	     89.95437384	      0.00000000	      0.00000000
      2.99000000	      3.02072692	     -4.71066293	      3.36873223	      1.03916092	      0.89732967	      1.42156364	     16.94788823	      4.59185105	    -17.23360237	    -20.22627889	     -0.35301516	     -3.06957160	     -3.36252153	     -1.12704438	    -12.63056833	      5.49272940	      9.58367809	    -26.17931027	     -0.45691516	      3.43595650	     -8.13206732	     -6.33655065	     -8.37654091	      6.85453703	     -3.53679767	      2.76867211	     -7.77085723	     15.51592098	     11.61226292	     89.95437384	      0.00000000	      0.00000000	     11.17610443	      8.87803494	    -11.80053962	     27.28717394	     89.95437384	      0.00000000	      0.00000000
      3.00000000	      2.68414962	     -5.35673942	      3.59575428	      1.04817224	      0.89783243	      1.42287298	     16.54688930	      5.39160060	    -17.50625943	    -19.89833005	     -0.34729138	     -2.62657958	     -3.10628280	     -1.07367222	    -11.33628794	      6.98950743	     10.59981013	    -28.63066383	     -0.49969935	      1.39009203	     -9.95024383	     -6.59692662	     -7.77895590	      7.48085843	     -3.65008117	      2.59276111	     -7.96997364	     16.01242130	     11.92677347	     89.95437384	      0.00000000	      0.00000000	     10.47406297	      8.59159391	    -11.43159471	     26.43139824	     89.95437384	      0.00000000	      0.00000000
